M48
; DRILL file {KiCad (6.0.11)} date Mon Mar 20 13:43:10 2023
; FORMAT={-:-/ absolute / inch / decimal}
; #@! TF.CreationDate,2023-03-20T13:43:10+01:00
; #@! TF.GenerationSoftware,Kicad,Pcbnew,(6.0.11)
; #@! TF.FileFunction,Plated,1,2,PTH
FMAT,2
INCH
; #@! TA.AperFunction,Plated,PTH,ViaDrill
T1C0.0157
; #@! TA.AperFunction,Plated,PTH,ComponentDrill
T2C0.0394
; #@! TA.AperFunction,Plated,PTH,ComponentDrill
T3C0.0400
; #@! TA.AperFunction,Plated,PTH,ComponentDrill
T4C0.0402
; #@! TA.AperFunction,Plated,PTH,ComponentDrill
T5C0.0433
; #@! TA.AperFunction,Plated,PTH,ComponentDrill
T6C0.0512
; #@! TA.AperFunction,Plated,PTH,ComponentDrill
T7C0.1260
%
G90
G05
T1
X2.1Y-4.23
X2.28Y-4.5
X2.415Y-4.28
X2.48Y-3.14
X2.48Y-3.675
X2.48Y-4.09
X2.48Y-4.5
X2.49Y-3.53
X2.615Y-4.28
X2.68Y-3.14
X2.68Y-3.675
X2.68Y-4.09
X2.68Y-4.5
X2.69Y-3.53
X2.815Y-4.28
X2.88Y-3.14
X2.88Y-3.675
X2.88Y-4.09
X2.88Y-4.5
X2.89Y-3.53
X3.015Y-4.28
X3.08Y-3.14
X3.08Y-3.675
X3.08Y-4.09
X3.08Y-4.5
X3.09Y-3.53
X3.22Y-4.28
X3.28Y-3.14
X3.28Y-3.675
X3.28Y-4.09
X3.28Y-4.5
X3.29Y-3.53
X3.415Y-4.28
X3.48Y-3.14
X3.48Y-3.675
X3.48Y-4.09
X3.48Y-4.5
X3.49Y-3.53
X3.615Y-4.28
X3.68Y-3.14
X3.68Y-3.675
X3.68Y-4.09
X3.68Y-4.5
X3.69Y-3.53
X3.815Y-4.28
X3.88Y-3.14
X3.88Y-3.675
X3.88Y-4.09
X3.89Y-3.53
T2
X4.0Y-2.79
X4.0Y-2.89
X4.0Y-2.99
X4.0Y-3.09
X4.0Y-3.19
X4.0Y-3.29
X4.0Y-3.39
X4.0Y-3.49
X4.0Y-3.65
X4.0Y-3.75
X4.0Y-3.85
X4.0Y-4.01
X4.0Y-4.11
X4.0Y-4.21
X4.0Y-4.31
X4.0Y-4.41
X4.0Y-4.51
X4.0Y-4.61
X4.0Y-4.71
X4.1Y-2.79
X4.1Y-2.89
X4.1Y-2.99
X4.1Y-3.09
X4.1Y-3.19
X4.1Y-3.29
X4.1Y-3.39
X4.1Y-3.49
X4.1Y-3.65
X4.1Y-3.75
X4.1Y-3.85
X4.1Y-4.01
X4.1Y-4.11
X4.1Y-4.21
X4.1Y-4.31
X4.1Y-4.41
X4.1Y-4.51
X4.1Y-4.61
X4.1Y-4.71
X5.2398Y-4.1
X5.2398Y-4.3
X5.2398Y-4.5
X5.3398Y-4.1
X5.3398Y-4.3
X5.3398Y-4.5
T3
X5.3Y-3.065
X5.3Y-3.165
X5.4Y-3.065
X5.4Y-3.165
X5.5Y-3.065
X5.5Y-3.165
X5.6Y-3.065
X5.6Y-3.165
T4
X4.32Y-2.71
X4.32Y-2.81
X4.32Y-2.91
X4.32Y-3.01
X4.32Y-3.11
X4.32Y-3.21
X4.32Y-3.31
X4.32Y-3.41
X4.32Y-3.51
X4.32Y-3.61
X4.32Y-3.71
X4.32Y-3.81
X4.32Y-3.91
X4.32Y-4.01
X4.32Y-4.11
X4.32Y-4.21
X4.32Y-4.31
X4.32Y-4.41
X4.32Y-4.51
X4.32Y-4.61
X4.57Y-4.6009
X4.67Y-4.6009
X4.77Y-4.6009
X5.02Y-2.71
X5.02Y-2.81
X5.02Y-2.91
X5.02Y-3.01
X5.02Y-3.11
X5.02Y-3.21
X5.02Y-3.31
X5.02Y-3.41
X5.02Y-3.51
X5.02Y-3.61
X5.02Y-3.71
X5.02Y-3.81
X5.02Y-3.91
X5.02Y-4.01
X5.02Y-4.11
X5.02Y-4.21
X5.02Y-4.31
X5.02Y-4.41
X5.02Y-4.51
X5.02Y-4.61
T5
X1.97Y-3.2166
X2.07Y-3.2166
X2.17Y-3.2166
T6
X1.98Y-2.92
X1.98Y-4.77
X2.18Y-2.92
X2.18Y-4.77
X2.38Y-2.92
X2.38Y-4.77
X2.58Y-2.92
X2.58Y-4.77
X2.78Y-2.92
X2.78Y-4.77
X2.98Y-2.92
X2.98Y-4.77
X3.18Y-2.92
X3.18Y-4.77
X3.38Y-2.92
X3.38Y-4.77
X3.58Y-2.92
X3.58Y-4.77
X3.78Y-2.92
X3.78Y-4.77
T7
X1.73Y-2.82
X1.73Y-4.87
X5.63Y-2.82
X5.63Y-4.87
T0
M30
