%TF.GenerationSoftware,KiCad,Pcbnew,(6.0.11)*%
%TF.CreationDate,2023-03-20T13:43:10+01:00*%
%TF.ProjectId,Triggerbox_Deluxe,54726967-6765-4726-926f-785f44656c75,rev?*%
%TF.SameCoordinates,Original*%
%TF.FileFunction,Soldermask,Bot*%
%TF.FilePolarity,Negative*%
%FSLAX46Y46*%
G04 Gerber Fmt 4.6, Leading zero omitted, Abs format (unit mm)*
G04 Created by KiCad (PCBNEW (6.0.11)) date 2023-03-20 13:43:10*
%MOMM*%
%LPD*%
G01*
G04 APERTURE LIST*
%ADD10C,5.600000*%
%ADD11R,1.700000X1.700000*%
%ADD12O,1.700000X1.700000*%
%ADD13R,1.727200X1.727200*%
%ADD14O,1.727200X1.727200*%
%ADD15O,3.500000X3.500000*%
%ADD16R,1.905000X2.000000*%
%ADD17O,1.905000X2.000000*%
%ADD18O,1.500000X1.500000*%
%ADD19O,1.800000X1.800000*%
%ADD20R,2.600000X2.600000*%
%ADD21C,2.600000*%
G04 APERTURE END LIST*
D10*
%TO.C,H1*%
X43942000Y-123698000D03*
%TD*%
D11*
%TO.C,JP3*%
X133091000Y-104140000D03*
D12*
X135631000Y-104140000D03*
%TD*%
D11*
%TO.C,JP1*%
X133091000Y-114300000D03*
D12*
X135631000Y-114300000D03*
%TD*%
D13*
%TO.C,U3*%
X142240000Y-77851000D03*
D14*
X142240000Y-80391000D03*
X139700000Y-77851000D03*
X139700000Y-80391000D03*
X137160000Y-77851000D03*
X137160000Y-80391000D03*
X134620000Y-77851000D03*
X134620000Y-80391000D03*
%TD*%
D11*
%TO.C,J4*%
X101600000Y-101854000D03*
D12*
X104140000Y-101854000D03*
X101600000Y-104394000D03*
X104140000Y-104394000D03*
X101600000Y-106934000D03*
X104140000Y-106934000D03*
X101600000Y-109474000D03*
X104140000Y-109474000D03*
X101600000Y-112014000D03*
X104140000Y-112014000D03*
X101600000Y-114554000D03*
X104140000Y-114554000D03*
X101600000Y-117094000D03*
X104140000Y-117094000D03*
X101600000Y-119634000D03*
X104140000Y-119634000D03*
%TD*%
D11*
%TO.C,J5*%
X101600000Y-70866000D03*
D12*
X104140000Y-70866000D03*
X101600000Y-73406000D03*
X104140000Y-73406000D03*
X101600000Y-75946000D03*
X104140000Y-75946000D03*
X101600000Y-78486000D03*
X104140000Y-78486000D03*
X101600000Y-81026000D03*
X104140000Y-81026000D03*
X101600000Y-83566000D03*
X104140000Y-83566000D03*
X101600000Y-86106000D03*
X104140000Y-86106000D03*
X101600000Y-88646000D03*
X104140000Y-88646000D03*
%TD*%
D15*
%TO.C,IC1*%
X52578000Y-98362000D03*
D16*
X50038000Y-81702000D03*
D17*
X52578000Y-81702000D03*
X55118000Y-81702000D03*
%TD*%
D18*
%TO.C,U2*%
X116193000Y-71994000D03*
D19*
X115893000Y-68964000D03*
D18*
X121043000Y-71994000D03*
D19*
X121343000Y-68964000D03*
D12*
X109728000Y-68834000D03*
X109728000Y-71374000D03*
D11*
X109728000Y-73914000D03*
D12*
X109728000Y-76454000D03*
X109728000Y-78994000D03*
X109728000Y-81534000D03*
X109728000Y-84074000D03*
D11*
X109728000Y-86614000D03*
D12*
X109728000Y-89154000D03*
X109728000Y-91694000D03*
X109728000Y-94234000D03*
X109728000Y-96774000D03*
D11*
X109728000Y-99314000D03*
D12*
X109728000Y-101854000D03*
X109728000Y-104394000D03*
X109728000Y-106934000D03*
X109728000Y-109474000D03*
D11*
X109728000Y-112014000D03*
D12*
X109728000Y-114554000D03*
X109728000Y-117094000D03*
X127508000Y-117094000D03*
X127508000Y-114554000D03*
D11*
X127508000Y-112014000D03*
D12*
X127508000Y-109474000D03*
X127508000Y-106934000D03*
X127508000Y-104394000D03*
X127508000Y-101854000D03*
D11*
X127508000Y-99314000D03*
D12*
X127508000Y-96774000D03*
X127508000Y-94234000D03*
X127508000Y-91694000D03*
X127508000Y-89154000D03*
D11*
X127508000Y-86614000D03*
D12*
X127508000Y-84074000D03*
X127508000Y-81534000D03*
X127508000Y-78994000D03*
X127508000Y-76454000D03*
D11*
X127508000Y-73914000D03*
D12*
X127508000Y-71374000D03*
X127508000Y-68834000D03*
X116078000Y-116864000D03*
D11*
X118618000Y-116864000D03*
D12*
X121158000Y-116864000D03*
%TD*%
D11*
%TO.C,J3*%
X104140000Y-97790000D03*
D12*
X101600000Y-97790000D03*
X104140000Y-95250000D03*
X101600000Y-95250000D03*
X104140000Y-92710000D03*
X101600000Y-92710000D03*
%TD*%
D10*
%TO.C,H4*%
X43942000Y-71628000D03*
%TD*%
%TO.C,H3*%
X143002000Y-71628000D03*
%TD*%
D11*
%TO.C,JP2*%
X133091000Y-109220000D03*
D12*
X135631000Y-109220000D03*
%TD*%
D20*
%TO.C,J1*%
X96012000Y-74168000D03*
D21*
X90932000Y-74168000D03*
X85852000Y-74168000D03*
X80772000Y-74168000D03*
X75692000Y-74168000D03*
X70612000Y-74168000D03*
X65532000Y-74168000D03*
X60452000Y-74168000D03*
X55372000Y-74168000D03*
X50292000Y-74168000D03*
%TD*%
D20*
%TO.C,J2*%
X50292000Y-121158000D03*
D21*
X55372000Y-121158000D03*
X60452000Y-121158000D03*
X65532000Y-121158000D03*
X70612000Y-121158000D03*
X75692000Y-121158000D03*
X80772000Y-121158000D03*
X85852000Y-121158000D03*
X90932000Y-121158000D03*
X96012000Y-121158000D03*
%TD*%
D10*
%TO.C,H2*%
X143002000Y-123698000D03*
%TD*%
M02*
