%TF.GenerationSoftware,KiCad,Pcbnew,(6.0.11)*%
%TF.CreationDate,2023-03-20T13:43:10+01:00*%
%TF.ProjectId,Triggerbox_Deluxe,54726967-6765-4726-926f-785f44656c75,rev?*%
%TF.SameCoordinates,Original*%
%TF.FileFunction,Soldermask,Top*%
%TF.FilePolarity,Negative*%
%FSLAX46Y46*%
G04 Gerber Fmt 4.6, Leading zero omitted, Abs format (unit mm)*
G04 Created by KiCad (PCBNEW (6.0.11)) date 2023-03-20 13:43:10*
%MOMM*%
%LPD*%
G01*
G04 APERTURE LIST*
G04 Aperture macros list*
%AMRoundRect*
0 Rectangle with rounded corners*
0 $1 Rounding radius*
0 $2 $3 $4 $5 $6 $7 $8 $9 X,Y pos of 4 corners*
0 Add a 4 corners polygon primitive as box body*
4,1,4,$2,$3,$4,$5,$6,$7,$8,$9,$2,$3,0*
0 Add four circle primitives for the rounded corners*
1,1,$1+$1,$2,$3*
1,1,$1+$1,$4,$5*
1,1,$1+$1,$6,$7*
1,1,$1+$1,$8,$9*
0 Add four rect primitives between the rounded corners*
20,1,$1+$1,$2,$3,$4,$5,0*
20,1,$1+$1,$4,$5,$6,$7,0*
20,1,$1+$1,$6,$7,$8,$9,0*
20,1,$1+$1,$8,$9,$2,$3,0*%
G04 Aperture macros list end*
%ADD10RoundRect,0.200000X-0.275000X0.200000X-0.275000X-0.200000X0.275000X-0.200000X0.275000X0.200000X0*%
%ADD11C,5.600000*%
%ADD12R,0.600000X1.500000*%
%ADD13RoundRect,0.243750X-0.243750X-0.456250X0.243750X-0.456250X0.243750X0.456250X-0.243750X0.456250X0*%
%ADD14RoundRect,0.200000X0.275000X-0.200000X0.275000X0.200000X-0.275000X0.200000X-0.275000X-0.200000X0*%
%ADD15R,1.700000X1.700000*%
%ADD16O,1.700000X1.700000*%
%ADD17RoundRect,0.200000X0.200000X0.275000X-0.200000X0.275000X-0.200000X-0.275000X0.200000X-0.275000X0*%
%ADD18R,1.727200X1.727200*%
%ADD19O,1.727200X1.727200*%
%ADD20RoundRect,0.243750X0.456250X-0.243750X0.456250X0.243750X-0.456250X0.243750X-0.456250X-0.243750X0*%
%ADD21RoundRect,0.250000X0.337500X0.475000X-0.337500X0.475000X-0.337500X-0.475000X0.337500X-0.475000X0*%
%ADD22RoundRect,0.150000X0.150000X-0.587500X0.150000X0.587500X-0.150000X0.587500X-0.150000X-0.587500X0*%
%ADD23O,3.500000X3.500000*%
%ADD24R,1.905000X2.000000*%
%ADD25O,1.905000X2.000000*%
%ADD26O,1.500000X1.500000*%
%ADD27O,1.800000X1.800000*%
%ADD28R,3.500000X1.700000*%
%ADD29R,1.700000X3.500000*%
%ADD30RoundRect,0.250000X0.250000X0.475000X-0.250000X0.475000X-0.250000X-0.475000X0.250000X-0.475000X0*%
%ADD31RoundRect,0.250000X-0.412500X-0.650000X0.412500X-0.650000X0.412500X0.650000X-0.412500X0.650000X0*%
%ADD32RoundRect,0.250000X-0.325000X-0.650000X0.325000X-0.650000X0.325000X0.650000X-0.325000X0.650000X0*%
%ADD33R,2.600000X2.600000*%
%ADD34C,2.600000*%
%ADD35RoundRect,0.225000X0.250000X-0.225000X0.250000X0.225000X-0.250000X0.225000X-0.250000X-0.225000X0*%
%ADD36R,1.500000X2.000000*%
%ADD37R,3.800000X2.000000*%
G04 APERTURE END LIST*
D10*
%TO.C,R1*%
X62992000Y-83884000D03*
X62992000Y-85534000D03*
%TD*%
D11*
%TO.C,H1*%
X43942000Y-123698000D03*
%TD*%
D10*
%TO.C,R17*%
X73152000Y-86932000D03*
X73152000Y-88582000D03*
%TD*%
D12*
%TO.C,U6*%
X85217000Y-110109000D03*
X86487000Y-110109000D03*
X86487000Y-103759000D03*
X85217000Y-103759000D03*
%TD*%
D13*
%TO.C,D7*%
X89994500Y-90551000D03*
X91869500Y-90551000D03*
%TD*%
D14*
%TO.C,R51*%
X83312000Y-106489000D03*
X83312000Y-104839000D03*
%TD*%
D15*
%TO.C,JP3*%
X133091000Y-104140000D03*
D16*
X135631000Y-104140000D03*
%TD*%
D14*
%TO.C,R6*%
X68072000Y-92392000D03*
X68072000Y-90742000D03*
%TD*%
D10*
%TO.C,R37*%
X93472000Y-86932000D03*
X93472000Y-88582000D03*
%TD*%
D14*
%TO.C,R53*%
X78232000Y-112585000D03*
X78232000Y-110935000D03*
%TD*%
D12*
%TO.C,U11*%
X59817000Y-110109000D03*
X61087000Y-110109000D03*
X61087000Y-103759000D03*
X59817000Y-103759000D03*
%TD*%
%TO.C,U9*%
X69977000Y-110109000D03*
X71247000Y-110109000D03*
X71247000Y-103759000D03*
X69977000Y-103759000D03*
%TD*%
%TO.C,U4*%
X95377000Y-110109000D03*
X96647000Y-110109000D03*
X96647000Y-103759000D03*
X95377000Y-103759000D03*
%TD*%
D10*
%TO.C,R55*%
X78232000Y-107887000D03*
X78232000Y-109537000D03*
%TD*%
D17*
%TO.C,R29*%
X81597000Y-92329000D03*
X79947000Y-92329000D03*
%TD*%
D10*
%TO.C,R58*%
X73152000Y-107887000D03*
X73152000Y-109537000D03*
%TD*%
D15*
%TO.C,JP1*%
X133091000Y-114300000D03*
D16*
X135631000Y-114300000D03*
%TD*%
D12*
%TO.C,U5*%
X90297000Y-110109000D03*
X91567000Y-110109000D03*
X91567000Y-103759000D03*
X90297000Y-103759000D03*
%TD*%
D18*
%TO.C,U3*%
X142240000Y-77851000D03*
D19*
X142240000Y-80391000D03*
X139700000Y-77851000D03*
X139700000Y-80391000D03*
X137160000Y-77851000D03*
X137160000Y-80391000D03*
X134620000Y-77851000D03*
X134620000Y-80391000D03*
%TD*%
D12*
%TO.C,U8*%
X75057000Y-110109000D03*
X76327000Y-110109000D03*
X76327000Y-103759000D03*
X75057000Y-103759000D03*
%TD*%
D13*
%TO.C,D16*%
X59514500Y-112268000D03*
X61389500Y-112268000D03*
%TD*%
D14*
%TO.C,R18*%
X73152000Y-82486000D03*
X73152000Y-80836000D03*
%TD*%
D10*
%TO.C,R22*%
X88392000Y-83884000D03*
X88392000Y-85534000D03*
%TD*%
D15*
%TO.C,J4*%
X101600000Y-101854000D03*
D16*
X104140000Y-101854000D03*
X101600000Y-104394000D03*
X104140000Y-104394000D03*
X101600000Y-106934000D03*
X104140000Y-106934000D03*
X101600000Y-109474000D03*
X104140000Y-109474000D03*
X101600000Y-112014000D03*
X104140000Y-112014000D03*
X101600000Y-114554000D03*
X104140000Y-114554000D03*
X101600000Y-117094000D03*
X104140000Y-117094000D03*
X101600000Y-119634000D03*
X104140000Y-119634000D03*
%TD*%
D14*
%TO.C,R47*%
X88392000Y-112585000D03*
X88392000Y-110935000D03*
%TD*%
D15*
%TO.C,J5*%
X101600000Y-70866000D03*
D16*
X104140000Y-70866000D03*
X101600000Y-73406000D03*
X104140000Y-73406000D03*
X101600000Y-75946000D03*
X104140000Y-75946000D03*
X101600000Y-78486000D03*
X104140000Y-78486000D03*
X101600000Y-81026000D03*
X104140000Y-81026000D03*
X101600000Y-83566000D03*
X104140000Y-83566000D03*
X101600000Y-86106000D03*
X104140000Y-86106000D03*
X101600000Y-88646000D03*
X104140000Y-88646000D03*
%TD*%
D20*
%TO.C,D19*%
X140462000Y-105077500D03*
X140462000Y-103202500D03*
%TD*%
D14*
%TO.C,R5*%
X62992000Y-92392000D03*
X62992000Y-90742000D03*
%TD*%
D13*
%TO.C,D15*%
X64594500Y-112268000D03*
X66469500Y-112268000D03*
%TD*%
%TO.C,D8*%
X95074500Y-90551000D03*
X96949500Y-90551000D03*
%TD*%
D21*
%TO.C,C11*%
X61489500Y-114300000D03*
X59414500Y-114300000D03*
%TD*%
D17*
%TO.C,R11*%
X71437000Y-92329000D03*
X69787000Y-92329000D03*
%TD*%
D14*
%TO.C,R38*%
X93472000Y-82486000D03*
X93472000Y-80836000D03*
%TD*%
D21*
%TO.C,C9*%
X71649500Y-114300000D03*
X69574500Y-114300000D03*
%TD*%
D14*
%TO.C,R56*%
X73152000Y-112585000D03*
X73152000Y-110935000D03*
%TD*%
D21*
%TO.C,C7*%
X81809500Y-114300000D03*
X79734500Y-114300000D03*
%TD*%
D13*
%TO.C,D3*%
X69674500Y-90551000D03*
X71549500Y-90551000D03*
%TD*%
D22*
%TO.C,Q12*%
X95062000Y-84503500D03*
X96962000Y-84503500D03*
X96012000Y-82628500D03*
%TD*%
D10*
%TO.C,R46*%
X93472000Y-107887000D03*
X93472000Y-109537000D03*
%TD*%
D13*
%TO.C,D6*%
X84914500Y-90551000D03*
X86789500Y-90551000D03*
%TD*%
D23*
%TO.C,IC1*%
X52578000Y-98362000D03*
D24*
X50038000Y-81702000D03*
D25*
X52578000Y-81702000D03*
X55118000Y-81702000D03*
%TD*%
D22*
%TO.C,Q14*%
X84902000Y-88440500D03*
X86802000Y-88440500D03*
X85852000Y-86565500D03*
%TD*%
D14*
%TO.C,R48*%
X88392000Y-106489000D03*
X88392000Y-104839000D03*
%TD*%
%TO.C,R65*%
X138430000Y-115125000D03*
X138430000Y-113475000D03*
%TD*%
%TO.C,R44*%
X93472000Y-112585000D03*
X93472000Y-110935000D03*
%TD*%
D26*
%TO.C,U2*%
X116193000Y-71994000D03*
D27*
X115893000Y-68964000D03*
D26*
X121043000Y-71994000D03*
D27*
X121343000Y-68964000D03*
D28*
X108828000Y-68834000D03*
D16*
X109728000Y-68834000D03*
D28*
X108828000Y-71374000D03*
D16*
X109728000Y-71374000D03*
D15*
X109728000Y-73914000D03*
D28*
X108828000Y-73914000D03*
D16*
X109728000Y-76454000D03*
D28*
X108828000Y-76454000D03*
D16*
X109728000Y-78994000D03*
D28*
X108828000Y-78994000D03*
X108828000Y-81534000D03*
D16*
X109728000Y-81534000D03*
D28*
X108828000Y-84074000D03*
D16*
X109728000Y-84074000D03*
D15*
X109728000Y-86614000D03*
D28*
X108828000Y-86614000D03*
D16*
X109728000Y-89154000D03*
D28*
X108828000Y-89154000D03*
D16*
X109728000Y-91694000D03*
D28*
X108828000Y-91694000D03*
X108828000Y-94234000D03*
D16*
X109728000Y-94234000D03*
D28*
X108828000Y-96774000D03*
D16*
X109728000Y-96774000D03*
D28*
X108828000Y-99314000D03*
D15*
X109728000Y-99314000D03*
D16*
X109728000Y-101854000D03*
D28*
X108828000Y-101854000D03*
X108828000Y-104394000D03*
D16*
X109728000Y-104394000D03*
D28*
X108828000Y-106934000D03*
D16*
X109728000Y-106934000D03*
D28*
X108828000Y-109474000D03*
D16*
X109728000Y-109474000D03*
D28*
X108828000Y-112014000D03*
D15*
X109728000Y-112014000D03*
D16*
X109728000Y-114554000D03*
D28*
X108828000Y-114554000D03*
D16*
X109728000Y-117094000D03*
D28*
X108828000Y-117094000D03*
X128408000Y-117094000D03*
D16*
X127508000Y-117094000D03*
X127508000Y-114554000D03*
D28*
X128408000Y-114554000D03*
X128408000Y-112014000D03*
D15*
X127508000Y-112014000D03*
D16*
X127508000Y-109474000D03*
D28*
X128408000Y-109474000D03*
D16*
X127508000Y-106934000D03*
D28*
X128408000Y-106934000D03*
X128408000Y-104394000D03*
D16*
X127508000Y-104394000D03*
X127508000Y-101854000D03*
D28*
X128408000Y-101854000D03*
X128408000Y-99314000D03*
D15*
X127508000Y-99314000D03*
D16*
X127508000Y-96774000D03*
D28*
X128408000Y-96774000D03*
X128408000Y-94234000D03*
D16*
X127508000Y-94234000D03*
X127508000Y-91694000D03*
D28*
X128408000Y-91694000D03*
D16*
X127508000Y-89154000D03*
D28*
X128408000Y-89154000D03*
X128408000Y-86614000D03*
D15*
X127508000Y-86614000D03*
D28*
X128408000Y-84074000D03*
D16*
X127508000Y-84074000D03*
D28*
X128408000Y-81534000D03*
D16*
X127508000Y-81534000D03*
D28*
X128408000Y-78994000D03*
D16*
X127508000Y-78994000D03*
D28*
X128408000Y-76454000D03*
D16*
X127508000Y-76454000D03*
D15*
X127508000Y-73914000D03*
D28*
X128408000Y-73914000D03*
X128408000Y-71374000D03*
D16*
X127508000Y-71374000D03*
X127508000Y-68834000D03*
D28*
X128408000Y-68834000D03*
D29*
X116078000Y-117764000D03*
D16*
X116078000Y-116864000D03*
D15*
X118618000Y-116864000D03*
D29*
X118618000Y-117764000D03*
D16*
X121158000Y-116864000D03*
D29*
X121158000Y-117764000D03*
%TD*%
D14*
%TO.C,R42*%
X98552000Y-106489000D03*
X98552000Y-104839000D03*
%TD*%
%TO.C,R63*%
X62992000Y-106489000D03*
X62992000Y-104839000D03*
%TD*%
%TO.C,R34*%
X83312000Y-82486000D03*
X83312000Y-80836000D03*
%TD*%
D13*
%TO.C,D13*%
X74754500Y-112268000D03*
X76629500Y-112268000D03*
%TD*%
D10*
%TO.C,R49*%
X88392000Y-107887000D03*
X88392000Y-109537000D03*
%TD*%
D22*
%TO.C,Q15*%
X89982000Y-88440500D03*
X91882000Y-88440500D03*
X90932000Y-86565500D03*
%TD*%
D14*
%TO.C,R36*%
X88392000Y-82486000D03*
X88392000Y-80836000D03*
%TD*%
%TO.C,R50*%
X83312000Y-112585000D03*
X83312000Y-110935000D03*
%TD*%
D30*
%TO.C,C2*%
X51054000Y-112268000D03*
X49154000Y-112268000D03*
%TD*%
D12*
%TO.C,U7*%
X80137000Y-110109000D03*
X81407000Y-110109000D03*
X81407000Y-103759000D03*
X80137000Y-103759000D03*
%TD*%
D14*
%TO.C,R41*%
X98552000Y-112585000D03*
X98552000Y-110935000D03*
%TD*%
D10*
%TO.C,R21*%
X83312000Y-83884000D03*
X83312000Y-85534000D03*
%TD*%
%TO.C,R35*%
X88392000Y-86932000D03*
X88392000Y-88582000D03*
%TD*%
D13*
%TO.C,D10*%
X89994500Y-112268000D03*
X91869500Y-112268000D03*
%TD*%
D22*
%TO.C,Q9*%
X79822000Y-84503500D03*
X81722000Y-84503500D03*
X80772000Y-82628500D03*
%TD*%
D21*
%TO.C,C4*%
X97049500Y-114300000D03*
X94974500Y-114300000D03*
%TD*%
D20*
%TO.C,D18*%
X140462000Y-110157500D03*
X140462000Y-108282500D03*
%TD*%
D14*
%TO.C,R59*%
X68072000Y-112585000D03*
X68072000Y-110935000D03*
%TD*%
%TO.C,R62*%
X62992000Y-112585000D03*
X62992000Y-110935000D03*
%TD*%
D15*
%TO.C,J3*%
X104140000Y-97790000D03*
D16*
X101600000Y-97790000D03*
X104140000Y-95250000D03*
X101600000Y-95250000D03*
X104140000Y-92710000D03*
X101600000Y-92710000D03*
%TD*%
D13*
%TO.C,D9*%
X95074500Y-112268000D03*
X96949500Y-112268000D03*
%TD*%
D22*
%TO.C,Q8*%
X74742000Y-88440500D03*
X76642000Y-88440500D03*
X75692000Y-86565500D03*
%TD*%
D17*
%TO.C,R12*%
X76517000Y-92329000D03*
X74867000Y-92329000D03*
%TD*%
D11*
%TO.C,H4*%
X43942000Y-71628000D03*
%TD*%
D22*
%TO.C,Q4*%
X74742000Y-84503500D03*
X76642000Y-84503500D03*
X75692000Y-82628500D03*
%TD*%
D10*
%TO.C,R52*%
X83312000Y-107887000D03*
X83312000Y-109537000D03*
%TD*%
D14*
%TO.C,R25*%
X83312000Y-92392000D03*
X83312000Y-90742000D03*
%TD*%
%TO.C,R45*%
X93472000Y-106489000D03*
X93472000Y-104839000D03*
%TD*%
%TO.C,R27*%
X93472000Y-92392000D03*
X93472000Y-90742000D03*
%TD*%
D10*
%TO.C,R61*%
X68072000Y-107887000D03*
X68072000Y-109537000D03*
%TD*%
D14*
%TO.C,R8*%
X78232000Y-92392000D03*
X78232000Y-90742000D03*
%TD*%
D10*
%TO.C,R43*%
X98552000Y-107887000D03*
X98552000Y-109537000D03*
%TD*%
D31*
%TO.C,C12*%
X134620000Y-73914000D03*
X137745000Y-73914000D03*
%TD*%
D22*
%TO.C,Q16*%
X95062000Y-88440500D03*
X96962000Y-88440500D03*
X96012000Y-86565500D03*
%TD*%
D11*
%TO.C,H3*%
X143002000Y-71628000D03*
%TD*%
D21*
%TO.C,C8*%
X76729500Y-114300000D03*
X74654500Y-114300000D03*
%TD*%
D13*
%TO.C,D11*%
X84914500Y-112268000D03*
X86789500Y-112268000D03*
%TD*%
D21*
%TO.C,C6*%
X86889500Y-114300000D03*
X84814500Y-114300000D03*
%TD*%
D10*
%TO.C,R33*%
X83312000Y-86932000D03*
X83312000Y-88582000D03*
%TD*%
%TO.C,R64*%
X62992000Y-107887000D03*
X62992000Y-109537000D03*
%TD*%
D13*
%TO.C,D4*%
X74754500Y-90551000D03*
X76629500Y-90551000D03*
%TD*%
D15*
%TO.C,JP2*%
X133091000Y-109220000D03*
D16*
X135631000Y-109220000D03*
%TD*%
D17*
%TO.C,R32*%
X96837000Y-92329000D03*
X95187000Y-92329000D03*
%TD*%
%TO.C,R30*%
X86677000Y-92329000D03*
X85027000Y-92329000D03*
%TD*%
D14*
%TO.C,R67*%
X138430000Y-104965000D03*
X138430000Y-103315000D03*
%TD*%
D32*
%TO.C,C3*%
X53340000Y-112268000D03*
X56290000Y-112268000D03*
%TD*%
D21*
%TO.C,C10*%
X66569500Y-114300000D03*
X64494500Y-114300000D03*
%TD*%
D17*
%TO.C,R10*%
X66357000Y-92329000D03*
X64707000Y-92329000D03*
%TD*%
D33*
%TO.C,J1*%
X96012000Y-74168000D03*
D34*
X90932000Y-74168000D03*
X85852000Y-74168000D03*
X80772000Y-74168000D03*
X75692000Y-74168000D03*
X70612000Y-74168000D03*
X65532000Y-74168000D03*
X60452000Y-74168000D03*
X55372000Y-74168000D03*
X50292000Y-74168000D03*
%TD*%
D21*
%TO.C,C5*%
X91969500Y-114300000D03*
X89894500Y-114300000D03*
%TD*%
D13*
%TO.C,D2*%
X64594500Y-90551000D03*
X66469500Y-90551000D03*
%TD*%
D10*
%TO.C,R24*%
X98552000Y-83884000D03*
X98552000Y-85534000D03*
%TD*%
%TO.C,R23*%
X93472000Y-83884000D03*
X93472000Y-85534000D03*
%TD*%
D14*
%TO.C,R7*%
X73152000Y-92392000D03*
X73152000Y-90742000D03*
%TD*%
D33*
%TO.C,J2*%
X50292000Y-121158000D03*
D34*
X55372000Y-121158000D03*
X60452000Y-121158000D03*
X65532000Y-121158000D03*
X70612000Y-121158000D03*
X75692000Y-121158000D03*
X80772000Y-121158000D03*
X85852000Y-121158000D03*
X90932000Y-121158000D03*
X96012000Y-121158000D03*
%TD*%
D10*
%TO.C,R3*%
X73152000Y-83884000D03*
X73152000Y-85534000D03*
%TD*%
D13*
%TO.C,D12*%
X79834500Y-112268000D03*
X81709500Y-112268000D03*
%TD*%
D14*
%TO.C,R60*%
X68072000Y-106489000D03*
X68072000Y-104839000D03*
%TD*%
%TO.C,R14*%
X62992000Y-82486000D03*
X62992000Y-80836000D03*
%TD*%
D22*
%TO.C,Q2*%
X64582000Y-84503500D03*
X66482000Y-84503500D03*
X65532000Y-82628500D03*
%TD*%
%TO.C,Q13*%
X79822000Y-88440500D03*
X81722000Y-88440500D03*
X80772000Y-86565500D03*
%TD*%
D14*
%TO.C,R54*%
X78232000Y-106489000D03*
X78232000Y-104839000D03*
%TD*%
D12*
%TO.C,U10*%
X64897000Y-110109000D03*
X66167000Y-110109000D03*
X66167000Y-103759000D03*
X64897000Y-103759000D03*
%TD*%
D17*
%TO.C,R31*%
X91757000Y-92329000D03*
X90107000Y-92329000D03*
%TD*%
D10*
%TO.C,R39*%
X98552000Y-86932000D03*
X98552000Y-88582000D03*
%TD*%
D22*
%TO.C,Q11*%
X89982000Y-84503500D03*
X91882000Y-84503500D03*
X90932000Y-82628500D03*
%TD*%
%TO.C,Q5*%
X59502000Y-88440500D03*
X61402000Y-88440500D03*
X60452000Y-86565500D03*
%TD*%
D14*
%TO.C,R16*%
X68072000Y-82486000D03*
X68072000Y-80836000D03*
%TD*%
%TO.C,R20*%
X78232000Y-82486000D03*
X78232000Y-80836000D03*
%TD*%
D35*
%TO.C,C1*%
X55880000Y-109995000D03*
X55880000Y-108445000D03*
%TD*%
D14*
%TO.C,R57*%
X73152000Y-106489000D03*
X73152000Y-104839000D03*
%TD*%
D22*
%TO.C,Q1*%
X59502000Y-84503500D03*
X61402000Y-84503500D03*
X60452000Y-82628500D03*
%TD*%
%TO.C,Q6*%
X64582000Y-88440500D03*
X66482000Y-88440500D03*
X65532000Y-86565500D03*
%TD*%
D13*
%TO.C,D1*%
X59514500Y-90551000D03*
X61389500Y-90551000D03*
%TD*%
D14*
%TO.C,R26*%
X88392000Y-92392000D03*
X88392000Y-90742000D03*
%TD*%
D10*
%TO.C,R19*%
X78232000Y-86932000D03*
X78232000Y-88582000D03*
%TD*%
D22*
%TO.C,Q3*%
X69662000Y-84503500D03*
X71562000Y-84503500D03*
X70612000Y-82628500D03*
%TD*%
D10*
%TO.C,R13*%
X62992000Y-86932000D03*
X62992000Y-88582000D03*
%TD*%
D22*
%TO.C,Q7*%
X69662000Y-88440500D03*
X71562000Y-88440500D03*
X70612000Y-86565500D03*
%TD*%
D10*
%TO.C,R4*%
X78232000Y-83884000D03*
X78232000Y-85534000D03*
%TD*%
%TO.C,R15*%
X68072000Y-86932000D03*
X68072000Y-88582000D03*
%TD*%
D22*
%TO.C,Q10*%
X84902000Y-84503500D03*
X86802000Y-84503500D03*
X85852000Y-82628500D03*
%TD*%
D10*
%TO.C,R2*%
X68072000Y-83884000D03*
X68072000Y-85534000D03*
%TD*%
D13*
%TO.C,D5*%
X79834500Y-90551000D03*
X81709500Y-90551000D03*
%TD*%
D14*
%TO.C,R28*%
X98552000Y-92392000D03*
X98552000Y-90742000D03*
%TD*%
%TO.C,R40*%
X98552000Y-82486000D03*
X98552000Y-80836000D03*
%TD*%
D11*
%TO.C,H2*%
X143002000Y-123698000D03*
%TD*%
D17*
%TO.C,R9*%
X61277000Y-92329000D03*
X59627000Y-92329000D03*
%TD*%
D20*
%TO.C,D17*%
X140462000Y-115237500D03*
X140462000Y-113362500D03*
%TD*%
D14*
%TO.C,R66*%
X138430000Y-110045000D03*
X138430000Y-108395000D03*
%TD*%
D13*
%TO.C,D14*%
X69674500Y-112268000D03*
X71549500Y-112268000D03*
%TD*%
D36*
%TO.C,U1*%
X48754000Y-109576000D03*
D37*
X51054000Y-103276000D03*
D36*
X51054000Y-109576000D03*
X53354000Y-109576000D03*
%TD*%
M02*
